<svg width="64" height="64" viewBox="0 0 64 64" fill="none" xmlns="http://www.w3.org/2000/svg">
  <defs>
    <linearGradient id="gold" x1="9" y1="7" x2="48" y2="56" gradientUnits="userSpaceOnUse">
      <stop stop-color="#FFF0A8"/>
      <stop offset="0.52" stop-color="#D4AF55"/>
      <stop offset="1" stop-color="#7A561D"/>
    </linearGradient>
    <linearGradient id="silver" x1="31" y1="7" x2="56" y2="56" gradientUnits="userSpaceOnUse">
      <stop stop-color="#FFFFFF"/>
      <stop offset="0.48" stop-color="#CBD5DC"/>
      <stop offset="1" stop-color="#6F7B86"/>
    </linearGradient>
    <filter id="shadow" x="-20%" y="-20%" width="140%" height="140%" color-interpolation-filters="sRGB">
      <feDropShadow dx="0" dy="3" stdDeviation="3" flood-color="#000" flood-opacity="0.65"/>
    </filter>
  </defs>
  <rect width="64" height="64" rx="14" fill="#0A1018"/>
  <path d="M14 43H7M15 25H8M52 25H58M50 43H58" stroke="#0ADBEA" stroke-width="2" stroke-linecap="round" opacity="0.72"/>
  <circle cx="7" cy="43" r="2" fill="#0ADBEA"/>
  <circle cx="58" cy="25" r="2" fill="#0ADBEA"/>
  <g filter="url(#shadow)">
    <path d="M24 10C18 10 14 14 13 20C8 21 5 25 5 31C5 38 10 42 17 42H20C23 48 30 49 34 44C39 47 48 44 49 36C55 34 58 29 56 23C55 17 50 14 44 15C41 9 33 8 29 12C28 11 26 10 24 10Z" fill="#111720" stroke="url(#gold)" stroke-width="3" stroke-linejoin="round"/>
    <path d="M34 12C38 8 45 10 47 16C53 16 57 21 56 27C55 32 52 35 48 36C47 44 39 47 34 44V12Z" fill="#111720" stroke="url(#silver)" stroke-width="2.2" stroke-linejoin="round"/>
    <path d="M14 30H23L29 24H35M18 21H26L31 16H39M20 39V33H30L36 39" stroke="url(#gold)" stroke-width="2.1" stroke-linecap="round" stroke-linejoin="round"/>
    <path d="M38 21H48M43 21V16M39 31H52M47 31V39" stroke="url(#silver)" stroke-width="2.1" stroke-linecap="round" stroke-linejoin="round"/>
    <circle cx="14" cy="30" r="2.3" fill="#D4AF55"/>
    <circle cx="18" cy="21" r="2.3" fill="#EFD98C"/>
    <circle cx="36" cy="39" r="2" fill="#EFD98C"/>
    <circle cx="48" cy="21" r="2" fill="#E7ECEF"/>
    <circle cx="52" cy="31" r="2" fill="#E7ECEF"/>
  </g>
  <path d="M22 22H33V27H30V43H22V22Z" fill="#0D1B24" stroke="#08DCEB" stroke-width="3" stroke-linejoin="round"/>
  <path d="M35 22H55V28H49V43H41V28H35V22Z" fill="#111820" stroke="url(#silver)" stroke-width="3" stroke-linejoin="round"/>
</svg>
